<svg xmlns="http://www.w3.org/2000/svg" width="416" height="227" viewBox="0 0 416 227" version="1.1"><path d="M 64 24 L 64 48 134.500 48 L 205 48 205 24 L 205 0 134.500 0 L 64 0 64 24 M 211 24 L 211 48 281.532 48 C 357.740 48, 356.034 47.887, 361.834 53.298 C 369.804 60.733, 370.178 74.550, 362.633 82.845 C 357.278 88.733, 360.862 88.456, 283 89 L 211.500 89.500 211.243 158.286 L 210.986 227.071 287.243 226.786 L 363.500 226.500 370.242 223.877 C 380.936 219.717, 387.880 215.105, 396.650 206.338 C 405.572 197.420, 411.570 187.065, 414.490 175.540 C 416.491 167.643, 416.475 149.261, 414.461 141.460 C 412.485 133.803, 407.922 124.024, 403.542 118.058 L 400.094 113.361 403.664 108.430 C 408.270 102.070, 412.521 93.058, 414.461 85.540 C 416.489 77.686, 416.492 59.337, 414.468 51.460 C 408.400 27.845, 388.643 7.919, 365.404 1.975 C 358.057 0.096, 354.103 0, 284.340 0 L 211 0 211 24 M 157 133.982 L 157 179 78.500 179 L 0 179 0 203 L 0 227 102.507 227 L 205.014 227 204.757 158.250 L 204.500 89.500 180.750 89.232 L 157 88.964 157 133.982 M 259 158 L 259 179 306.250 178.984 C 353.420 178.967, 353.507 178.963, 357.500 176.712 C 359.700 175.471, 362.963 172.278, 364.750 169.615 C 372.745 157.706, 365.913 141.077, 351.779 138.046 C 348.803 137.408, 329.763 137, 302.951 137 L 259 137 259 158" stroke="none" fill="#fffcfc" fill-rule="evenodd"/><path d="" stroke="none" fill="#fcfcfc" fill-rule="evenodd"/></svg>